<?xml version="1.0" encoding="utf-8"?>
<!-- Generator: Adobe Illustrator 15.1.0, SVG Export Plug-In . SVG Version: 6.00 Build 0)  -->
<!DOCTYPE svg PUBLIC "-//W3C//DTD SVG 1.1//EN" "http://www.w3.org/Graphics/SVG/1.1/DTD/svg11.dtd">
<svg version="1.1" id="Livello_1" xmlns="http://www.w3.org/2000/svg" xmlns:xlink="http://www.w3.org/1999/xlink" x="0px" y="0px"
	 width="800px" height="600px" viewBox="0 0 800 600" enable-background="new 0 0 800 600" xml:space="preserve">
<path fill="none" stroke="#EA1515" stroke-miterlimit="10" d="M380.013,22.878c-83.973,4.495-151.314,71.636-156.118,155.526"/>
<path fill="none" stroke="#EA1515" stroke-miterlimit="10" d="M554.152,179.399C549.847,95.467,482.957,28.067,399.24,22.951"/>
<path fill="none" stroke="#EA1515" stroke-miterlimit="10" d="M399.068,584.998c84.644-5.087,152.122-73.837,155.196-159.013"/>
<path fill="none" stroke="#EA1515" stroke-miterlimit="10" d="M223.725,425.958c3.071,85.516,71.063,154.479,156.171,159.094"/>
<line fill="none" stroke="#EA1515" stroke-miterlimit="10" x1="224.109" y1="348.979" x2="223.725" y2="417.843"/>
<line fill="none" stroke="#EA1515" stroke-miterlimit="10" x1="223.619" y1="188.015" x2="224.109" y2="264.062"/>
<line fill="none" stroke="#EA1515" stroke-miterlimit="10" x1="536.047" y1="188.015" x2="576.383" y2="188.015"/>
<line fill="none" stroke="#EA1515" stroke-miterlimit="10" x1="223.619" y1="188.015" x2="276.699" y2="188.015"/>
<line fill="none" stroke="#EA1515" stroke-miterlimit="10" x1="536.047" y1="432.751" x2="553.884" y2="432.751"/>
<line fill="none" stroke="#EA1515" stroke-miterlimit="10" x1="224.109" y1="432.751" x2="239.232" y2="432.751"/>
<line fill="none" stroke="#EA1515" stroke-miterlimit="10" x1="224.109" y1="175.172" x2="224.109" y2="175.175"/>
<line fill="none" stroke="#EA1515" stroke-miterlimit="10" x1="536.047" y1="172.128" x2="553.622" y2="172.128"/>
<line fill="none" stroke="#EA1515" stroke-miterlimit="10" x1="224.109" y1="172.128" x2="239.232" y2="172.128"/>
<line fill="none" stroke="#EA1515" stroke-miterlimit="10" x1="239.232" y1="172.128" x2="239.232" y2="188.015"/>
<line fill="none" stroke="#EA1515" stroke-miterlimit="10" x1="536.047" y1="417.843" x2="576.383" y2="417.843"/>
<line fill="none" stroke="#EA1515" stroke-miterlimit="10" x1="223.725" y1="417.843" x2="276.699" y2="417.843"/>
<line fill="none" stroke="#EA1515" stroke-miterlimit="10" x1="239.232" y1="432.751" x2="239.232" y2="417.843"/>
<line fill="none" stroke="#EA1515" stroke-miterlimit="10" x1="536.047" y1="343.765" x2="536.047" y2="432.751"/>
<line fill="none" stroke="#EA1515" stroke-miterlimit="10" x1="536.047" y1="172.128" x2="536.047" y2="266.137"/>
<line fill="none" stroke="#EA1515" stroke-miterlimit="10" x1="536.047" y1="266.137" x2="576.383" y2="266.137"/>
<line fill="none" stroke="#EA1515" stroke-miterlimit="10" x1="536.047" y1="343.765" x2="576.383" y2="344.525"/>
<line fill="none" stroke="#EA1515" stroke-miterlimit="10" x1="576.383" y1="344.525" x2="576.383" y2="512.719"/>
<line fill="none" stroke="#EA1515" stroke-miterlimit="10" x1="576.383" y1="91.855" x2="576.383" y2="266.137"/>
<line fill="none" stroke="#EA1515" stroke-miterlimit="10" x1="276.699" y1="348.979" x2="276.699" y2="417.843"/>
<line fill="none" stroke="#EA1515" stroke-miterlimit="10" x1="276.699" y1="188.646" x2="276.699" y2="264.062"/>
<line fill="none" stroke="#EA1515" stroke-miterlimit="10" x1="224.109" y1="264.062" x2="276.699" y2="264.062"/>
<line fill="none" stroke="#EA1515" stroke-miterlimit="10" x1="224.109" y1="348.979" x2="276.699" y2="348.979"/>
<line fill="none" stroke="#EA1515" stroke-miterlimit="10" x1="251.655" y1="399.996" x2="251.655" y2="365.08"/>
<line fill="none" stroke="#EA1515" stroke-miterlimit="10" x1="251.655" y1="219.132" x2="251.655" y2="245.002"/>
<line fill="none" stroke="#EA1515" stroke-miterlimit="10" x1="507.608" y1="236.943" x2="507.608" y2="265.429"/>
<line fill="none" stroke="#EA1515" stroke-miterlimit="10" x1="276.699" y1="371.517" x2="507.608" y2="371.517"/>
<line fill="none" stroke="#EA1515" stroke-miterlimit="10" x1="276.699" y1="236.943" x2="507.608" y2="236.943"/>
<line fill="none" stroke="#EA1515" stroke-miterlimit="10" x1="379.27" y1="22.639" x2="379.27" y2="50.758"/>
<line fill="none" stroke="#EA1515" stroke-miterlimit="10" x1="379.27" y1="50.758" x2="400.056" y2="50.758"/>
<line fill="none" stroke="#EA1515" stroke-miterlimit="10" x1="400.056" y1="50.758" x2="400.056" y2="22.639"/>
<line fill="none" stroke="#EA1515" stroke-miterlimit="10" x1="379.27" y1="561.427" x2="379.27" y2="584.983"/>
<line fill="none" stroke="#EA1515" stroke-miterlimit="10" x1="400.002" y1="561.427" x2="400.002" y2="585.299"/>
<line fill="none" stroke="#EA1515" stroke-miterlimit="10" x1="379.27" y1="561.427" x2="400.002" y2="561.427"/>
<line fill="none" stroke="#EA1515" stroke-miterlimit="10" x1="507.608" y1="265.429" x2="507.608" y2="335.773"/>
<line fill="none" stroke="#EA1515" stroke-miterlimit="10" x1="276.699" y1="264.062" x2="507.608" y2="264.062"/>
<line fill="none" stroke="#EA1515" stroke-miterlimit="10" x1="276.699" y1="348.979" x2="507.608" y2="348.979"/>
<line fill="none" stroke="#EA1515" stroke-miterlimit="10" x1="507.608" y1="335.773" x2="507.608" y2="371.517"/>
</svg>
